#!OML:ASF I:\Random Stuff\random\construction\7_22_03\Session 2\subj1.ASF
:FULLY-SPECIFIED
:DEGREES
373
root -2.28761 17.8979 0.313108 6.85386 68.428 -6.44353
lowerback 3.38636 -0.551839 1.75679
upperback -1.39316 -0.615588 1.00718
thorax -3.34008 -0.330671 0.0895157
lowerneck -22.8847 7.04037 8.0416
upperneck 34.6346 9.94662 -5.14058
head 17.2185 4.57425 -1.47769
rclavicle -5.71444e-014 -7.88616e-015
rhumerus -15.0992 46.5893 -97.1469
rradius 85.3242
rwrist -46.2777
rhand -33.1332 1.94363
rfingers 7.12502
rthumb -6.34282 -27.9414
lclavicle -5.71444e-014 -7.88616e-015
lhumerus 6.05373 -14.5276 85.5461
lradius 62.3011
lwrist 69.2706
lhand -19.9466 72.7245
lfingers 7.12502
lthumb 6.39141 -102.608
rfemur -17.1754 44.6841 7.56609
rtibia 2.18663e-014
rfoot 7.24881 -33.5123
rtoes -18.7947
lfemur -12.8977 -1.49296 -15.4006
ltibia 17.4851
lfoot -16.0527 23.0794
ltoes -18.6594
374
root -2.29133 17.897 0.31506 6.82679 68.5948 -6.40416
lowerback 3.40298 -0.539983 1.78169
upperback -1.33544 -0.59862 1.02539
thorax -3.28974 -0.322019 0.092939
lowerneck -23.0473 7.02771 7.89699
upperneck 34.832 9.93193 -4.96942
head 17.3359 4.57012 -1.37545
rclavicle 2.76435e-014 9.08197e-015
rhumerus -14.0906 46.5327 -96.7879
rradius 84.5764
rwrist -46.43
rhand -33.2262 1.426
rfingers 7.12502
rthumb -6.43261 -28.4563
lclavicle 2.76435e-014 9.08197e-015
lhumerus 5.68636 -14.4975 86.2009
lradius 62.666
lwrist 69.3236
lhand -20.7332 71.7589
lfingers 7.12502
lthumb 5.63193 -101.664
rfemur -17.0112 44.5388 7.68674
rtibia -1.74931e-014
rfoot 7.10645 -33.519
rtoes -18.5447
lfemur -12.8394 -1.57647 -15.4056
ltibia 17.4131
lfoot -16.0066 22.9688
ltoes -19.0805
375
root -2.29555 17.8969 0.318459 6.85924 68.7585 -6.32236
lowerback 3.42325 -0.515144 1.79857
upperback -1.29043 -0.564942 1.02786
thorax -3.25445 -0.3052 0.0837754
lowerneck -23.1613 7.00231 7.91405
upperneck 34.9198 9.921 -5.04623
head 17.4172 4.55457 -1.4119
rclavicle -3.844e-014 9.26834e-015
rhumerus -13.2702 46.4094 -96.5352
rradius 83.9129
rwrist -46.6067
rhand -33.1944 0.813199
rfingers 7.12502
rthumb -6.40193 -29.0701
lclavicle -3.844e-014 9.26834e-015
lhumerus 5.39652 -14.4305 86.8445
lradius 62.837
lwrist 69.4895
lhand -21.2387 71.9042
lfingers 7.12502
lthumb 5.1439 -101.822
rfemur -16.8768 44.391 7.7745
rtibia -1.98785e-014
rfoot 7.05282 -33.5113
rtoes -18.4981
lfemur -12.7841 -1.6081 -15.4272
ltibia 17.3155
lfoot -15.8306 22.8859
ltoes -19.2545
376
root -2.30004 17.8978 0.321885 7.00992 68.9354 -6.174
lowerback 3.42581 -0.485255 1.81941
upperback -1.28194 -0.524909 1.00676
thorax -3.24705 -0.28588 0.0478623
lowerneck -23.1867 6.95091 8.00468
upperneck 34.9353 9.87675 -5.21758
head 17.4487 4.52478 -1.51368
rclavicle 1.14301e-015 1.38652e-014
rhumerus -12.6011 46.1345 -96.4246
rradius 83.2005
rwrist -46.6602
rhand -33.5946 0.672784
rfingers 7.12502
rthumb -6.78819 -29.1984
lclavicle 1.14301e-015 1.38652e-014
lhumerus 5.06071 -14.1284 87.5925
lradius 62.9788
lwrist 69.257
lhand -21.4332 72.8891
lfingers 7.12502
lthumb 4.95606 -102.811
rfemur -16.8247 44.2139 7.78268
rtibia 7.15625e-015
rfoot 7.13018 -33.5135
rtoes -18.6729
lfemur -12.7827 -1.72894 -15.4632
ltibia 17.2006
lfoot -15.6648 22.9024
ltoes -19.2805
377
root -2.30522 17.9006 0.327378 7.2361 69.1224 -5.98916
lowerback 3.40005 -0.45447 1.81664
upperback -1.29599 -0.485135 0.984751
thorax -3.24666 -0.266342 0.0241673
lowerneck -23.1492 6.89217 7.98651
upperneck 34.9305 9.81002 -5.24101
head 17.431 4.49465 -1.53745
rclavicle 3.98563e-014 1.09332e-014
rhumerus -11.8203 45.3933 -96.3882
rradius 82.1793
rwrist -46.5507
rhand -34.0526 0.619259
rfingers 7.12502
rthumb -7.23037 -29.2372
lclavicle 3.98563e-014 1.09332e-014
lhumerus 4.55688 -14.4291 88.1008
lradius 63.4392
lwrist 69.1906
lhand -22.3255 73.3579
lfingers 7.12502
lthumb 4.09447 -103.298
rfemur -16.8412 44.0155 7.73896
rtibia 2.90226e-014
rfoot 7.20641 -33.5024
rtoes -18.8002
lfemur -12.8353 -1.93326 -15.4946
ltibia 17.0908
lfoot -15.6249 22.9335
ltoes -19.4942
